# xmcd
#
# Track frame offsets:
# 150
# 18265
# 38812
# 55032
# 72755
# 90615
# 108052
# 119352
# 136362
# 150412
# 163932
# 180112
# 197240
# 211950
# 225780
# 239110
# 253440
# 269125
# 281170
# 292990
# 316584
#
# Disc length: 4443 seconds
#
#
# Revision: 0
# Processed by: cddbd v1.5.2PL0 Copyright (c) Steve Scherf et al.
# Submitted via: FreeRIP 2.943 
#
DISCID=26115915
DTITLE=Forro Sacode - Forro Sacode Obsweção Vol 04
DYEAR=2006
DGENRE=Forró
TTITLE0=Obseção
TTITLE1=Perdoa-Me
TTITLE2=Se Manca
TTITLE3=Escuta O Meu Coração
TTITLE4=Todo Bebo E Rico
TTITLE5=Perdidos
TTITLE6=Amor De Novela
TTITLE7=Ai Dentro
TTITLE8=Celular
TTITLE9=Mentiroso (Me Perdoa)
TTITLE10=Necessito Desse Amor
TTITLE11=Tô Te Querendo
TTITLE12=Ela Sabe Que Eu Não Presto
TTITLE13=Só Quero Amar Voce
TTITLE14=Sacanagem
TTITLE15=Promessa De Amor
TTITLE16=Piradinha
TTITLE17=Dona Do Meu Prazer
TTITLE18=Sexy
TTITLE19=Me Usou
TTITLE20=Biriteiro
EXTD=
EXTT0=
EXTT1=
EXTT2=
EXTT3=
EXTT4=
EXTT5=
EXTT6=
EXTT7=
EXTT8=
EXTT9=
EXTT10=
EXTT11=
EXTT12=
EXTT13=
EXTT14=
EXTT15=
EXTT16=
EXTT17=
EXTT18=
EXTT19=
EXTT20=
PLAYORDER=
